<?xml version="1.0" encoding="iso-8859-1"?>
<!-- Generator: Adobe Illustrator 19.0.0, SVG Export Plug-In . SVG Version: 6.00 Build 0)  -->
<svg version="1.1" id="Capa_1" xmlns="http://www.w3.org/2000/svg" xmlns:xlink="http://www.w3.org/1999/xlink" x="0px" y="0px"
	 viewBox="0 0 511.999 511.999" style="enable-background:new 0 0 511.999 511.999;" xml:space="preserve">
<g>
	<g>
		<path d="M365.115,319.587c-26.02-12.123-42.715-30.523-52.411-57.692c-6.904-19.344-10.023-42.117-12.127-66.576
			c7.613,5.724,15.988,9.996,24.799,12.527c6.51,1.87,13.336,2.795,20.31,2.795c12.469,0,25.404-2.96,37.796-8.775
			c13.654-6.408,29.65-18.147,33.592-31.877c3.847-13.394-0.295-31.03-11.082-47.177c-11.323-16.95-27.759-29.214-46.279-34.533
			c-13.847-3.976-29.126-3.628-44.165,0.841c1.281-15.609-1.487-32.412-9.741-47.316c-9.185-16.587-25.408-29.646-45.679-36.769
			c-14.279-5.018-34.075-7.868-46.807-0.817c-12.857,7.12-20.747,25.396-23.842,40.125c-4.34,20.651-1.676,41.152,7.502,57.727
			c8.371,15.116,22.573,27.347,40.309,34.873c-25.795,13.259-48.457,32.337-65.889,55.861
			c-26.048,35.149-39.23,78.57-37.115,122.268l0.277,5.736c-45.621,7.521-80.533,47.232-80.533,94.95
			c0,53.066,43.173,96.239,96.239,96.239c53.066,0,96.239-43.173,96.239-96.239c0-48.185-35.596-88.21-81.872-95.167l-0.338-6.972
			c-1.779-36.785,9.316-73.337,31.243-102.924c18.314-24.712,43.477-43.603,72.078-54.404c0.267,3.819,0.528,7.625,0.783,11.394
			c4.24,62.636,8.291,122.384,53.866,160.299c-33.446,15.095-56.781,48.759-56.781,87.773c0,53.066,43.173,96.239,96.239,96.239
			c53.066,0,96.24-43.173,96.24-96.239C457.967,363.828,416.619,321.379,365.115,319.587z M216.46,415.76
			c0,36.497-29.693,66.19-66.19,66.19c-36.497,0-66.19-29.693-66.19-66.19c0-36.492,29.685-66.182,66.175-66.19
			c0.001,0,0.002,0,0.002,0c0.005,0,0.011,0,0.016,0C186.769,349.573,216.46,379.265,216.46,415.76z M274.228,113.742
			c-6.565,2.241-38.06-2.936-50.96-26.229c-7.425-13.409-6.073-28.232-4.608-35.874c2.404-12.53,7.431-19.652,9.219-21.11
			c6.598-2.342,38.761,2.576,51.64,25.833C292.507,79.814,282.476,108.81,274.228,113.742z M296.636,135.409
			c3.01-6.324,29.233-25.586,54.782-18.249c11.529,3.311,22.314,11.455,29.587,22.343c6.758,10.117,8.021,18.717,7.242,21.98
			c-3.074,6.232-28.991,24.826-54.578,17.48c-14.731-4.231-24.257-15.668-28.625-22.108
			C297.884,146.295,296.402,137.703,296.636,135.409z M361.728,481.95c-36.497,0-66.19-29.693-66.19-66.19
			c0-36.478,29.662-66.158,66.133-66.189c0.016,0,0.032,0.003,0.049,0.003c0.022,0,0.044-0.002,0.067-0.002
			c36.47,0.032,66.131,29.711,66.131,66.189C427.918,452.257,398.225,481.95,361.728,481.95z"/>
	</g>
</g>
<g>
</g>
<g>
</g>
<g>
</g>
<g>
</g>
<g>
</g>
<g>
</g>
<g>
</g>
<g>
</g>
<g>
</g>
<g>
</g>
<g>
</g>
<g>
</g>
<g>
</g>
<g>
</g>
<g>
</g>
</svg>
